<svg xmlns="http://www.w3.org/2000/svg" xmlns:xlink="http://www.w3.org/1999/xlink" width="254" height="43" viewBox="0 0 254 43"><defs><clipPath id="b"><rect width="254" height="43"/></clipPath></defs><g id="a" clip-path="url(#b)"><path d="M24.34,6.329A23.291,23.291,0,0,1,13.026,3.581,20.252,20.252,0,0,1,5.109-4.011a21.061,21.061,0,0,1-2.865-10.93,20.9,20.9,0,0,1,2.895-10.93,20.464,20.464,0,0,1,7.946-7.592A23.291,23.291,0,0,1,24.4-36.21a23.6,23.6,0,0,1,9.276,1.772,18.92,18.92,0,0,1,7.09,5.14L35.8-24.63a14.473,14.473,0,0,0-11.048-4.845,15.491,15.491,0,0,0-7.622,1.861,13.407,13.407,0,0,0-5.258,5.17,14.852,14.852,0,0,0-1.891,7.5,14.852,14.852,0,0,0,1.891,7.5,13.407,13.407,0,0,0,5.258,5.17A15.491,15.491,0,0,0,24.754-.407,14.4,14.4,0,0,0,35.8-5.31L40.765-.584a18.869,18.869,0,0,1-7.119,5.14A23.816,23.816,0,0,1,24.34,6.329Zm43.425,0a23.584,23.584,0,0,1-11.4-2.747A20.345,20.345,0,0,1,48.387-4.04a20.94,20.94,0,0,1-2.895-10.9,20.94,20.94,0,0,1,2.895-10.9,20.345,20.345,0,0,1,7.976-7.622,23.584,23.584,0,0,1,11.4-2.747,23.584,23.584,0,0,1,11.4,2.747,20.411,20.411,0,0,1,7.976,7.592,20.9,20.9,0,0,1,2.895,10.93,20.9,20.9,0,0,1-2.895,10.93,20.411,20.411,0,0,1-7.976,7.592A23.584,23.584,0,0,1,67.765,6.329Zm0-6.735A14.919,14.919,0,0,0,75.21-2.268a13.461,13.461,0,0,0,5.2-5.2A14.9,14.9,0,0,0,82.3-14.941a14.9,14.9,0,0,0-1.891-7.474,13.461,13.461,0,0,0-5.2-5.2,14.919,14.919,0,0,0-7.444-1.861,14.919,14.919,0,0,0-7.444,1.861,13.461,13.461,0,0,0-5.2,5.2,14.9,14.9,0,0,0-1.891,7.474,14.9,14.9,0,0,0,1.891,7.474,13.461,13.461,0,0,0,5.2,5.2A14.919,14.919,0,0,0,67.765-.407Zm58.668,6.144L117.985-6.374a15.749,15.749,0,0,1-1.6.059h-9.335V5.738H99.374V-35.619h17.015a22.9,22.9,0,0,1,9.364,1.772,13.617,13.617,0,0,1,6.115,5.081A14.215,14.215,0,0,1,134-20.908a14.012,14.012,0,0,1-2.275,8.035,13.533,13.533,0,0,1-6.528,5.022L134.7,5.738Zm-.177-26.646a7.413,7.413,0,0,0-2.6-6.085q-2.6-2.127-7.622-2.127l-16.661-.354v16.838h16.661q5.022,0,7.622-2.156A7.5,7.5,0,0,0,126.256-20.908Zm25.287-8.212H137.836v-6.5H172.93v6.5H159.224V5.738h-7.681ZM210.92-.7v6.44H179.9V-35.619h30.191v6.44L179.9-29.12v10.694h27.65V-12.1h-19.97V-.7Zm35.331,6.44L235.025-9.978,223.918,5.738h-8.744l15.361-21.092L216-35.619h8.685l10.576,14.711,10.457-14.711h8.33L239.574-15.65,255.113,5.738Z" transform="translate(-2 36)" fill="#ff8000"/></g></svg>